<svg xmlns="http://www.w3.org/2000/svg" xmlns:xlink="http://www.w3.org/1999/xlink" width="5000" zoomAndPan="magnify" viewBox="0 0 3750 3749.999967" height="5000" preserveAspectRatio="xMidYMid meet" version="1.0"><defs><clipPath id="038e2b978c"><path d="M 395 379.207031 L 3385 379.207031 L 3385 3359 L 395 3359 Z M 395 379.207031 " clip-rule="nonzero"/></clipPath></defs><g clip-path="url(#038e2b978c)"><path fill="#7ed957" d="M 1877.753906 379.207031 C 2166.535156 379.207031 2423.617188 448.464844 2649.007812 588.160156 C 2874.394531 726.679688 3050.480469 903.9375 3178.4375 1119.9375 C 3306.390625 1335.933594 3374.476562 1575.410156 3383.867188 1838.363281 C 3393.257812 2101.316406 3326.347656 2359.574219 3183.132812 2611.964844 C 3062.21875 2820.917969 2904.917969 2986.4375 2711.222656 3110.871094 C 2517.53125 3235.304688 2310.921875 3312.78125 2091.402344 3344.476562 C 1871.886719 3375 1651.191406 3357.390625 1430.5 3289.304688 C 1209.804688 3221.21875 1010.242188 3100.304688 835.332031 2924.222656 C 638.117188 2723.484375 506.640625 2491.050781 440.902344 2228.097656 C 375.164062 1965.144531 381.03125 1701.015625 457.335938 1438.0625 C 490.203125 1332.414062 544.203125 1244.371094 619.332031 1175.109375 C 694.464844 1105.851562 778.984375 1054.199219 874.070312 1021.328125 C 969.15625 988.460938 1067.761719 973.199219 1169.894531 977.894531 C 1272.023438 981.417969 1367.109375 1002.546875 1455.152344 1041.285156 C 1543.191406 1080.023438 1617.148438 1134.023438 1677.019531 1205.632812 C 1736.886719 1277.238281 1773.277344 1364.109375 1783.84375 1466.238281 C 1728.667969 1426.324219 1662.929688 1405.195312 1586.628906 1402.847656 C 1510.324219 1400.5 1436.367188 1416.933594 1364.761719 1452.152344 C 1293.152344 1487.367188 1233.285156 1540.191406 1183.980469 1611.800781 C 1134.675781 1683.410156 1110.023438 1771.453125 1110.023438 1878.277344 C 1110.023438 2061.40625 1148.761719 2212.835938 1225.066406 2333.75 C 1301.371094 2454.660156 1397.628906 2545.050781 1512.671875 2604.921875 C 1627.714844 2664.789062 1752.148438 2695.3125 1885.972656 2695.3125 C 2019.796875 2695.3125 2144.230469 2664.789062 2259.273438 2602.574219 C 2374.3125 2540.355469 2470.574219 2447.617188 2546.878906 2325.53125 C 2623.179688 2203.445312 2661.917969 2050.839844 2661.917969 1867.710938 C 2661.917969 1724.496094 2636.09375 1598.886719 2585.617188 1489.714844 C 2533.964844 1380.542969 2465.878906 1288.976562 2380.183594 1218.542969 C 2294.488281 1146.9375 2194.707031 1097.632812 2080.839844 1070.632812 C 1966.972656 1043.632812 1847.234375 1042.460938 1719.277344 1068.285156 C 1664.105469 1002.546875 1597.191406 950.894531 1518.542969 912.15625 C 1439.890625 869.894531 1355.367188 844.070312 1263.804688 832.332031 C 1172.242188 819.417969 1080.675781 821.765625 989.113281 838.199219 C 897.546875 854.636719 811.851562 886.332031 730.855469 934.460938 C 877.589844 758.375 1046.632812 622.203125 1241.5 525.941406 C 1435.195312 427.335938 1647.671875 379.207031 1877.753906 379.207031 Z M 1877.753906 379.207031 " fill-opacity="1" fill-rule="nonzero"/></g></svg>